<svg width="374" height="436" viewBox="0 0 374 436" fill="none" xmlns="http://www.w3.org/2000/svg">
<path d="M0 94C0 61.9675 25.9675 36 58 36H262C294.033 36 320 61.9675 320 94V286C320 368.843 252.843 436 170 436H150C67.1573 436 0 368.843 0 286V94Z" fill="#EECB01"/>
<path d="M147 8C147 3.58172 150.582 0 155 0H169C173.418 0 177 3.58172 177 8V36H147V8Z" fill="#EECB01"/>
<path d="M151 436V406H290V428C290 432.418 286.418 436 282 436H151Z" fill="#EECB01"/>
<rect x="290" y="116" width="30" height="290" fill="#FFFAC0"/>
<path d="M290 101H320V123C320 127.418 316.418 131 312 131H290V101Z" fill="#EECB01"/>
<path d="M30 106C30 83.9086 47.9086 66 70 66H250C272.091 66 290 83.9086 290 106V406H150C83.7258 406 30 352.274 30 286V106Z" fill="#FFF8D0"/>
<circle cx="222" cy="171" r="30" fill="#FFD603"/>
<circle cx="97" cy="171" r="30" fill="#FFD603"/>
<rect x="74" y="275" width="30" height="20" fill="#1659CC"/>
<rect x="95" y="311" width="110" height="20" fill="#1659CC"/>
<path d="M216.329 304.27L224.179 261.209L259.391 296.42L216.329 304.27Z" fill="#EECB00"/>
<path d="M224.074 261.063L329.652 155.485C334.338 150.799 341.936 150.799 346.622 155.485L365.007 173.87C369.693 178.556 369.693 186.154 365.007 190.841L259.429 296.418L224.074 261.063Z" fill="#EECB00"/>
<rect x="315.213" y="170" width="50" height="30" transform="rotate(45 315.213 170)" fill="#1659CC"/>
</svg>
